PathFileType	4	(X/Y/Z)	8_coords_data.trc
DataRate	CameraRate	NumFrames	NumMarkers	Units	OrigDataRate	OrigDataStartFrame	OrigNumFrames
30.0	30.0	9	21	m	30.0	22	53
Frame#	Time	THUMB_TIP	THUMB_IP	THUMB_MCP	THUMB_CMC	INDEX_TIP	INDEX_DIP	INDEX_PIP	INDEX_MCP	MIDDLE_TIP	MIDDLE_DIP	MIDDLE_PIP	MIDDLE_MCP	RING_TIP	RING_DIP	RING_PIP	RING_MCP	PINKY_TIP	PINKY_DIP	PINKY_PIP	PINKY_MCP	WRIST
X1	Y1	Z1	X2	Y2	Z2	X3	Y3	Z3	X4	Y4	Z4	X5	Y5	Z5	X6	Y6	Z6	X7	Y7	Z7	X8	Y8	Z8	X9	Y9	Z9	X10	Y10	Z10	X11	Y11	Z11	X12	Y12	Z12	X13	Y13	Z13	X14	Y14	Z14	X15	Y15	Z15	X16	Y16	Z16	X17	Y17	Z17	X18	Y18	Z18	X19	Y19	Z19	X20	Y20	Z20	X21	Y21	Z21
20	0.6999999999999968	0.5098856631643653	0.0029625124731119667	-0.1592870376783059	0.4981536584199232	-0.009109094242499172	-0.14364618169213936	0.48593074215836085	-0.022020465268647316	-0.11809785853213578	0.4798237284392195	-0.027310676692878677	-0.07422750354700769	0.5047350360935742	-0.019314229272839878	-0.09968947729746308	0.5217560693435447	-0.01632464629478947	-0.10510674789442931	0.531591672479091	0.0023569515618812042	-0.11875477505888304	0.4925953172471891	0.0194711285206155	-0.11859565355673157	0.5050273727251193	-0.0160239068814908	-0.08823696525131097	0.5225253467246703	-0.012039457977547796	-0.09067521725692984	0.5381825200683633	0.009663435239856799	-0.10221847931232342	0.4988742785118504	0.03086760260992416	-0.1010380756199368	0.5071268873440736	-0.006331644840348094	-0.0755621554012349	0.5248095798675563	-0.0031563936597955866	-0.07705887349772839	0.541513359096802	0.014270483926125954	-0.08317995804753925	0.5072456679682549	0.03572230717580693	-0.08266473190015838	0.5103784951713428	-0.0082281938524984	-0.06177787434475146	0.5274266881623145	-0.0068428318429414325	-0.06244111475746733	0.5389354773872027	0.010564701050914671	-0.0647514368402971	0.5103135313072258	0.03228305697748923	-0.06159221708828244	0.4622830810018609	-0.023011742144276925	-0.051989820119430985
21	0.7333333333333302	0.5099260427108029	0.0031449982239598606	-0.15919677637580265	0.49812795648175834	-0.008966992947635033	-0.1436370581524145	0.4859347769973642	-0.02192326838270986	-0.11809725977983862	0.4798342882472103	-0.027251289381775123	-0.07423057276973072	0.5050164288094496	-0.019190196177688357	-0.09948979824126059	0.5219413717469973	-0.01596396824057611	-0.10506992009105504	0.5315865939643446	0.0027524352647323447	-0.11880584966296479	0.4925044387461911	0.019667941305167136	-0.11851107364598784	0.5051281221741573	-0.01607455972939853	-0.08787258118123292	0.5225555791823804	-0.01194384081611477	-0.09055975506581349	0.5380685798398939	0.009820886182006272	-0.10218098646774548	0.49877352403641484	0.031044731640949674	-0.10091809520704342	0.507361359536466	-0.0062762421871097596	-0.07519463181003394	0.5249757740786435	-0.002850955062611682	-0.07692662732130734	0.5414657729501104	0.014725717146749084	-0.08319723417102398	0.5070456073003167	0.0359287467585665	-0.08256117920393796	0.5105561215412645	-0.00836303652225423	-0.061665566987317344	0.527561876143838	-0.00656989828543264	-0.06243300796921902	0.5388036965060898	0.01100939345314711	-0.06475722738931755	0.510043522442771	0.03253095696713293	-0.061507897802913214	0.4622830810018609	-0.023011742144276925	-0.051989820119430985
22	0.7666666666666633	0.5101955176030518	0.0030031826184309107	-0.15912334000802963	0.49828559524392546	-0.009060342034177271	-0.14361124400666675	0.48605183504998917	-0.022003333097312727	-0.11808411933785892	0.4798385208050495	-0.027262924772408437	-0.07422501057462821	0.5068538566533728	-0.01973020893529387	-0.09941190044932119	0.5233847159253818	-0.01556033343367269	-0.10552277845743199	0.5320924314240666	0.003533339921644396	-0.1193653635337254	0.49267021906534636	0.019618087820387986	-0.11846750398021572	0.5069525863445583	-0.017022099223826137	-0.08771411827732772	0.5240240881806569	-0.011874713612687549	-0.09088716829747012	0.5385265981942376	0.010528451754101664	-0.10259976556939451	0.49887438911782944	0.031041286016679548	-0.1008465208982709	0.50918273140656	-0.007030978706398683	-0.07500648458094011	0.526515443974097	-0.0025705633387105298	-0.07717022435245546	0.5420421981068851	0.015782952563953012	-0.08367009659047836	0.50703140410438	0.03597188489740366	-0.08249870914411533	0.5122346412504007	-0.009126548311251259	-0.06174203720497873	0.529067623582455	-0.0061684490810636206	-0.06269090745591571	0.5393719967256095	0.01197689976554639	-0.06501000822161324	0.5099896559776484	0.032588399624986164	-0.06144243527701648	0.4622830810018609	-0.023011742144276925	-0.051989820119430985
23	0.7999999999999965	0.510817225418861	0.0024718187391458146	-0.15903568548569466	0.4987441146590139	-0.009431126682390434	-0.14352569235634755	0.48630918772048626	-0.022265333328082226	-0.11804087860758403	0.47985097058986104	-0.0273558452687922	-0.07419720038967914	0.5104280907456126	-0.020682910775473018	-0.09966800591473599	0.5261974748187414	-0.014995638617412377	-0.10652230831208492	0.5332096194425853	0.004755171402901492	-0.12040557753499365	0.49322379730293897	0.019276483667100663	-0.11843032769201145	0.5106688238787253	-0.01844850593348557	-0.08793467164969743	0.5270582316015234	-0.011705579725022619	-0.09166565820061234	0.5396511847768035	0.011796659543195087	-0.10343306359452364	0.49930304550789706	0.03080142361440219	-0.10078834789436211	0.5126841129201687	-0.008286346306739967	-0.07521007914255534	0.5294617810871466	-0.002233682491171174	-0.07783212254694066	0.5432879705069178	0.017372575713059057	-0.08451127701121702	0.507343589909809	0.03576822271165503	-0.0824322125597785	0.515479736236338	-0.010190679904894084	-0.06204416518431127	0.5319203648185703	-0.005557585828407374	-0.06315779488017514	0.5406351280413833	0.013409233932052067	-0.06542156808978628	0.5102361888119101	0.032390212638792715	-0.061358269915021135	0.4622830810018608	-0.023011742144276925	-0.051989820119430985
24	0.8333333333333297	0.5115806612416083	0.0014710304344466296	-0.1590575668373917	0.4993713412169849	-0.010139904268224531	-0.14343326845741206	0.48662269909121525	-0.02272760163109755	-0.11798052795565517	0.479864364745889	-0.027537085277270834	-0.07415035816435761	0.5157359219512704	-0.02173740232423016	-0.1004548893505291	0.530285618415797	-0.014163620748412709	-0.10813239971730482	0.5347833878557027	0.006370542975897231	-0.12192109157725592	0.4941486199477335	0.01862205280808793	-0.11840651651087705	0.516282967749673	-0.019830814702595956	-0.08878661993527309	0.5316080209831482	-0.0111690495093969	-0.09304297602106298	0.5413772186212746	0.013679497662555606	-0.10472724026621252	0.5000923370309496	0.030288453968517315	-0.10074615454752867	0.5178526353584867	-0.0095276526614686	-0.07592993083338839	0.5337363767751185	-0.0015502315535502742	-0.07894116165757209	0.545086636572511	0.019571407444950006	-0.08566633433555843	0.5079870049141748	0.035302413650311615	-0.08236881881889235	0.5203290287943078	-0.011194466829403837	-0.0627073389637981	0.5360501498062955	-0.004529832485636098	-0.06390274817838071	0.542480944291638	0.015347225637145523	-0.06599068056973129	0.5107939802007877	0.03191702840376476	-0.061272482398764205	0.462283081001861	-0.023011742144276925	-0.051989820119430985
25	0.8666666666666629	0.5124067959024232	-1.9149048229860632e-05	-0.1592193741959393	0.5001231444464319	-0.01120277058273167	-0.14334365322709025	0.48701614275082616	-0.02343062514163008	-0.11789751246983957	0.4798754596210847	-0.027813652713605475	-0.07408324865377247	0.5229474884131999	-0.022763003369539292	-0.10196832479952012	0.5355743962705806	-0.0129643071032024	-0.11048576276180047	0.536644489723171	0.008286220092661334	-0.12387530446047645	0.4954534274291119	0.01760838448754598	-0.1183953654022673	0.5240163128750215	-0.021101755169845804	-0.09044220331288072	0.5376894613985473	-0.01019622647846996	-0.0951448040204872	0.5435045334489433	0.016029895646212156	-0.10644900701538967	0.5012714425849001	0.029441629528744184	-0.10073592104250076	0.5249222461311839	-0.010666290890815722	-0.07728827736637961	0.5393720515658517	-0.0004038322659518645	-0.08058752968671007	0.5472638089213436	0.02229165043184811	-0.08713086293176969	0.5090154485091779	0.034493618017525374	-0.0823459128986812	0.5269737485500655	-0.01195937684441184	-0.06388792986022657	0.5414419407864309	-0.0028818453338826933	-0.06501479945646482	0.5447696685504412	0.017775645104902704	-0.06674867825849407	0.5117106559009693	0.03110054308203425	-0.061232136992346975	0.4622830810018609	-0.023011742144276925	-0.051989820119430985
26	0.8999999999999961	0.5131467192681204	-0.0019047076790779105	-0.15953062852475575	0.5008986284623302	-0.012537491739235462	-0.1432540141733869	0.4874279821249238	-0.024306283413889518	-0.11778133803264532	0.47989389932409343	-0.028182200682147385	-0.07398516397965471	0.5325128824167329	-0.02347337280011741	-0.1044614228207835	0.5419956077700783	-0.011112741146358629	-0.11369682779258178	0.5385627562789272	0.010456809080984897	-0.12614591878870712	0.49710330912462686	0.016283086880844677	-0.11834817407253162	0.5344111128162099	-0.021845831993417608	-0.09308664145310663	0.5454214166833007	-0.008357247274905721	-0.09806974199853574	0.5457889493173452	0.018867263365010545	-0.1084668805558501	0.5028057608225646	0.02827973805163797	-0.10072099467392753	0.5343768195577265	-0.011342190964681143	-0.0793800433424871	0.5464418540393243	0.0016117213225110838	-0.08279048311084403	0.5495447000810233	0.025583151516063385	-0.08878405132328293	0.5103976665420386	0.03335683869187667	-0.0823187294604365	0.5358059555713051	-0.012157073162907817	-0.06564511703956188	0.548037219743207	-0.0002094722238040747	-0.06645196805249859	0.5472347103002039	0.02074031067540283	-0.06758094726842262	0.5129508191244057	0.029946973014527423	-0.0611985006043782	0.4622830810018609	-0.023011742144276925	-0.051989820119430985
27	0.9333333333333294	0.5136580470824471	-0.004196203167227686	-0.1600286255442253	0.5015872011046041	-0.014165225796811343	-0.14320859982515927	0.4877909361675832	-0.025371015125866037	-0.11765643045932325	0.47989818886398916	-0.02862528529436248	-0.07387282318819899	0.5449445624542303	-0.022975138274438422	-0.10860870606695344	0.5492642651853356	-0.008128383556343377	-0.11803813036834127	0.5402239223355527	0.012797278065085127	-0.12863995661969319	0.49896022422531083	0.01468143177275949	-0.11827688385758875	0.5481885797334032	-0.02113597934101419	-0.09725410599571463	0.5546296705257737	-0.00491984428246095	-0.10210686945246766	0.5478655555695755	0.022098830388187718	-0.11068868265836901	0.5045749344766827	0.026841795213616626	-0.10070998880314266	0.547009077392222	-0.010827484216651029	-0.08258816661752533	0.5548436259102035	0.005104427863536709	-0.08571770763635927	0.5515218301008601	0.029310338582957618	-0.0905363732031379	0.5120228089390553	0.031932859902469635	-0.08231016246015233	0.5475975693957065	-0.011103828089877865	-0.068258026164979	0.5555366314448694	0.004060972458853507	-0.06826889339702374	0.5494846680588336	0.024164506313226974	-0.0684524274269494	0.514422174602786	0.0285001183260839	-0.06119243623421411	0.4622830810018609	-0.023011742144276925	-0.051989820119430985
28	0.9666666666666625	0.5138058916525453	-0.006698015963766513	-0.16070058586810743	0.5020934957108953	-0.01591964932773038	-0.14321398358502646	0.48806699179183577	-0.02649732758620671	-0.11751982256605634	0.4798855039358445	-0.02912984689487441	-0.07374742146043084	0.5600914219465859	-0.019228564548096627	-0.11555789020151266	0.5566160808244786	-0.003412919974280615	-0.12366883285941091	0.5414478500379346	0.015172223365151671	-0.13118728049565198	0.5009723255411155	0.012847814682495962	-0.11815021276615881	0.5656588756699424	-0.01656074262969809	-0.10377545176314432	0.5644354140773881	0.0011281603665426188	-0.10746406295451841	0.5494784550203589	0.025530712156841773	-0.1129608249002573	0.5065218618313921	0.025149343497179122	-0.10068346441263454	0.5633332791480994	-0.006890207560554251	-0.08740444242434248	0.5638805132158153	0.011014946988060048	-0.0894307630962432	0.5529222175456068	0.033200259742144134	-0.09224281448406702	0.5138413304096632	0.03022756445309238	-0.08231466373047308	0.5629925523756336	-0.0065427399078272774	-0.07183015305737861	0.5630823244731162	0.010510048553963536	-0.07034882033043055	0.5512116201658745	0.027794615272981105	-0.0692801054077965	0.5160667542281628	0.02677212775985849	-0.06123794347795547	0.4622830810018609	-0.023011742144276925	-0.051989820119430985
